<svg xmlns="http://www.w3.org/2000/svg" width="42" height="42" viewBox="0 0 42 42">
    <g fill="none" fill-rule="evenodd">
        <g fill="#0C71F3" fill-rule="nonzero" stroke="#FFF" stroke-width=".2">
            <g>
                <path d="M35.116 0H12.42C9.726 0 7.537 2.19 7.537 4.884v14.653H4.884C2.19 19.537 0 21.727 0 24.42v10.695C0 37.81 2.19 40 4.884 40H15.58c2.695 0 4.884-2.19 4.884-4.884v-2.653h14.653c2.695 0 4.884-2.19 4.884-4.884V4.884C40 2.19 37.81 0 35.116 0zM17.684 35.116c0 1.137-.926 2.105-2.105 2.105H4.884c-1.137 0-2.105-.926-2.105-2.105V24.42c0-1.137.926-2.105 2.105-2.105H15.58c1.137 0 2.105.926 2.105 2.105v10.695zm19.537-7.537c0 1.179-.968 2.105-2.105 2.105H20.463v-5.263c0-.842-.252-1.6-.59-2.316L29.98 12v4.842c0 .758.632 1.39 1.39 1.39.757 0 1.389-.632 1.389-1.39v-8.21c0-.758-.632-1.39-1.39-1.39h-8.21c-.758 0-1.39.632-1.39 1.39 0 .757.632 1.39 1.39 1.39H28L17.895 20.125c-.674-.379-1.474-.59-2.316-.59h-5.263V4.885c0-1.179.926-2.105 2.105-2.105h22.695c1.137 0 2.105.926 2.105 2.105V27.58z" transform="translate(-1114 -5771) translate(1115 5772)"/>
            </g>
        </g>
    </g>
</svg>
