<svg xmlns="http://www.w3.org/2000/svg" width="40" height="40" viewBox="0 0 40 40">
    <g fill="none" fill-rule="evenodd">
        <g fill="#0C71F3" fill-rule="nonzero">
            <g>
                <path d="M26.713 20.035c0 .308-.103.617-.36.926l-5.917 5.917c-1.184 1.184-2.985-.617-1.801-1.8l3.807-3.809h-21.2c-.308 0-.617-.102-.771-.257-.309-.206-.515-.566-.463-1.029C.162 12.933 3.713 6.4 9.836 2.746 20.95-3.944 35.924 2.18 39.32 14.735c3.396 12.71-6.432 25.007-19.347 25.264-1.647.052-1.647-2.521 0-2.573 7.1-.154 13.584-4.322 16.208-10.96 2.573-6.431.978-13.944-3.86-18.832-4.887-4.888-12.4-6.432-18.832-3.86-6.226 2.47-10.342 8.388-10.908 14.923h19.707l-3.808-3.808c-1.183-1.183.67-2.984 1.801-1.8l6.072 6.07c.257.258.36.567.36.876z" transform="translate(-660 -5777) translate(660 5777)"/>
            </g>
        </g>
    </g>
</svg>
