<svg xmlns="http://www.w3.org/2000/svg" width="44" height="44" viewBox="0 0 44 44">
    <g fill="none" fill-rule="evenodd">
        <g fill="#0C71F3" fill-rule="nonzero">
            <g>
                <path d="M12.555 12.42c2.57-2.57 5.861-3.69 9.122-3.619 3.506.077 6.977 1.528 9.486 4.036 2.508 2.509 3.959 5.98 4.036 9.486.07 3.26-1.049 6.552-3.619 9.122-3.343 3.343-6.836 4.18-9.683 4.669l-.728.123c-2.614.437-4.557.784-6.263 2.49l-4.335 4.334c-.635.635-1.46.939-2.278.939-.842 0-1.68-.321-2.297-.939L.94 38.004C.32 37.386 0 36.549 0 35.707c0-.819.304-1.643.939-2.278l4.335-4.335c1.705-1.706 2.052-3.649 2.49-6.263l.122-.728c.49-2.848 1.326-6.34 4.67-9.683zM3.226 34.51l-.602.603c-.185.184-.257.396-.257.598 0 .228.097.448.256.607l5.058 5.057c.16.16.38.257.607.257.202 0 .414-.072.598-.257l.603-.602-6.263-6.263zm2.89-2.89l-1.205 1.205 6.263 6.263 1.205-1.205-6.263-6.263zm8.124-17.516c-2.93 2.93-3.526 5.558-4.012 8.39-.04.234-.08.47-.119.71-.363 2.198-.744 4.571-2.366 6.673l6.379 6.379c2.102-1.622 4.475-2.003 6.674-2.366.238-.04.475-.078.709-.119 2.832-.486 5.46-1.082 8.39-4.012 2.094-2.094 2.995-4.792 2.92-7.472-.082-2.868-1.285-5.713-3.337-7.766-2.053-2.052-4.898-3.255-7.766-3.336-2.68-.076-5.378.825-7.472 2.919zm18.85 18.24c-.232.233-.349.538-.349.842 0 .305.117.61.35.843l2.89 2.89c.232.233.537.349.842.349.305 0 .61-.116.842-.35.233-.232.35-.537.35-.841 0-.305-.117-.61-.35-.843l-2.89-2.89c-.232-.233-.537-.349-.842-.349-.305 0-.61.116-.843.35zm5.63-11.912c-.33 0-.628.134-.844.35-.217.217-.35.515-.35.844 0 .33.133.628.35.844.216.216.514.35.843.35h4.087c.33 0 .628-.134.844-.35.216-.216.35-.515.35-.844 0-.329-.136-.626-.352-.842-.264-.264-.693-.352-4.929-.352zM33.09 9.225c-.232.232-.349.537-.349.842 0 .305.117.61.35.843.232.232.537.349.842.349.305 0 .61-.117.842-.35l2.89-2.89c.233-.232.35-.537.35-.842 0-.305-.117-.61-.35-.842-.117-.117-.254-.205-.455-.2-.218.007-.487.103-.84.305-.73.417-1.76 1.264-3.28 2.785zM7.08 6.335c-.233.232-.349.537-.349.842 0 .305.116.61.35.843l2.89 2.89c.232.232.537.349.842.349.304 0 .61-.117.842-.35.233-.232.349-.537.349-.842 0-.305-.116-.61-.35-.842l-2.89-2.89c-.232-.233-.537-.35-.842-.35-.304 0-.61.117-.842.35zM22.373 0c-.33 0-.628.134-.844.35-.216.216-.35.515-.35.844v4.087c0 .329.134.627.35.843.216.217.514.35.844.35.329 0 .627-.133.843-.35.217-.216.35-.514.35-.843V1.194c0-.33-.135-.627-.351-.842C22.999.136 22.702 0 22.373 0z" transform="translate(-202 -5775) translate(202 5775)"/>
            </g>
        </g>
    </g>
</svg>
