<svg width="38" height="38" xmlns="http://www.w3.org/2000/svg">
    <g fill-rule="nonzero" fill="none">
        <path d="M11.875 26.52c0-4.078 1.68-7.77 4.379-10.428a11.407 11.407 0 0 0-4.775-1.05C5.14 15.042 0 20.182 0 26.52 0 32.86 5.14 38 11.48 38c1.706 0 3.319-.382 4.774-1.05a14.598 14.598 0 0 1-4.379-10.43z" fill="#2267FF"/>
        <path d="M26.52 26.125c-4.078 0-7.77-1.68-10.428-4.38a11.418 11.418 0 0 0-1.05 4.776C15.042 32.86 20.182 38 26.52 38 32.86 38 38 32.86 38 26.52c0-1.706-.382-3.319-1.05-4.775a14.593 14.593 0 0 1-10.43 4.38z" fill="#71BF02"/>
        <path d="M26.52 0c-1.706 0-3.319.382-4.775 1.05a14.593 14.593 0 0 1 4.38 10.43c0 4.078-1.68 7.77-4.38 10.428a11.418 11.418 0 0 0 4.776 1.05C32.86 22.958 38 17.818 38 11.48 38 5.14 32.86 0 26.52 0z" fill="#2267FF"/>
        <path d="M11.48 11.875c4.078 0 7.77 1.68 10.428 4.379a11.407 11.407 0 0 0 1.05-4.775C22.958 5.14 17.818 0 11.48 0 5.14 0 0 5.14 0 11.48c0 1.706.382 3.319 1.05 4.774a14.598 14.598 0 0 1 10.43-4.379z" fill="#A9EA1B"/>
    </g>
</svg>
